:SAMPLES-PER-SECOND 30
:FULLY-SPECIFIED
:DEGREES
78
root  30.6743 40.7615 2.53955 53.5341 -83.1065 -63.0655
RightUpLeg  -58.908 -10.4359 8.0938
RightLeg  79.6177 -1.51073 -12.0026
RightFoot  -7.93841 -0.136468 2.77682
RightToes  0.00048216 0.542163 -0.142577
Spine  26.9711 -3.11402 1.44043
Spine1  9.03325 -4.22972 3.69039
HEad  6.61773 3.04963 2.48162
LeftShoulder1  7.25936 -11.384 -42.3501
LeftArm  -16.2663 1.80729 -29.5958
LeftForeArm  37.8443 -32.0468 -4.92302
LeftHand  -0.25398 0.0180481 5.50724
RightShoulder  4.55908 8.13339 33.2342
RightArm  0.992913 -15.2752 40.2903
RightForeArm  4.42899 22.01 4.72509
RightHand  -1.12163 2.15302 -17.3899
LeftUpLeg  6.06871 7.17705 4.93913
LeftLeg  5.46784 9.34684 -3.4347
LeftFoot  -5.61924 -0.0104237 0.901428
LeftToes  1.06247e-005 4.65855e-005 -8.185e-006
79
root  29.6273 40.7706 2.59823 52.8655 -82.5576 -62.5377
RightUpLeg  -60.7349 -10.4568 9.12841
RightLeg  73.0458 -2.52788 -10.368
RightFoot  -7.09269 -0.157667 2.94893
RightToes  0.00048216 0.542163 -0.142577
Spine  28.2774 -3.31749 2.25437
Spine1  8.70885 -4.39362 4.19157
HEad  5.63019 2.2388 2.87094
LeftShoulder1  7.39603 -11.6322 -42.4476
LeftArm  -17.2103 -1.31969 -29.4684
LeftForeArm  39.388 -35.4484 -5.67
LeftHand  -0.25398 0.0180481 5.50724
RightShoulder  4.51335 8.16174 32.7482
RightArm  -0.0377718 -15.8128 40.0736
RightForeArm  3.02433 21.3202 4.84488
RightHand  -1.14367 2.0876 -17.8657
LeftUpLeg  7.70318 7.12528 5.41019
LeftLeg  5.82581 8.94979 -3.01834
LeftFoot  -6.8945 -0.0141754 1.45591
LeftToes  1.06247e-005 4.65855e-005 -8.185e-006
80
root  28.5056 40.6658 2.65676 49.187 -82.2574 -59.2622
RightUpLeg  -60.9994 -10.7925 9.34578
RightLeg  67.0299 -3.03934 -8.54814
RightFoot  -6.31491 -0.196525 3.48721
RightToes  0.00048216 0.542163 -0.142577
Spine  29.5781 -3.55865 2.78826
Spine1  8.57103 -4.60495 4.66285
HEad  4.47932 1.36177 3.12385
LeftShoulder1  7.47127 -11.8358 -42.3017
LeftArm  -17.3729 -4.70483 -29.6421
LeftForeArm  40.3506 -37.7455 -6.21623
LeftHand  -0.25398 0.0180481 5.50724
RightShoulder  4.45753 8.1543 32.2936
RightArm  -0.15804 -16.525 39.8676
RightForeArm  1.12765 21.5802 4.92221
RightHand  -1.26503 2.54235 -18.6267
LeftUpLeg  9.0493 7.49872 5.52725
LeftLeg  7.59844 8.144 -2.27465
LeftFoot  -8.70487 -0.000173005 2.28307
LeftToes  1.06247e-005 4.65855e-005 -8.185e-006
81
root  27.2833 40.4777 2.69899 44.9165 -82.1453 -55.4894
RightUpLeg  -60.0439 -10.7733 8.78156
RightLeg  62.5591 -3.24992 -7.32294
RightFoot  -5.36207 -0.260387 4.25522
RightToes  0.00048216 0.542163 -0.142577
Spine  30.552 -3.68628 3.12055
Spine1  8.92474 -4.80139 5.30712
HEad  3.0633 0.525312 3.13266
LeftShoulder1  7.52364 -12.0921 -41.8712
LeftArm  -16.7293 -8.12277 -30.0853
LeftForeArm  40.9511 -39.0087 -6.5282
LeftHand  -0.25398 0.0180481 5.50724
RightShoulder  4.38609 8.07125 31.9498
RightArm  0.318184 -17.4349 39.5764
RightForeArm  -0.388974 22.8342 4.99639
RightHand  -1.44134 3.339 -19.3094
LeftUpLeg  10.5402 8.63771 5.76305
LeftLeg  9.83598 6.61358 -1.58659
LeftFoot  -11.1183 0.0611764 2.63958
LeftToes  1.06247e-005 4.65855e-005 -8.185e-006
82
root  25.9694 40.2822 2.69486 40.4834 -82.2469 -51.0779
RightUpLeg  -58.9294 -10.169 7.8662
RightLeg  60.3525 -3.60508 -7.3377
RightFoot  -3.33224 -0.26754 3.57809
RightToes  0.00048216 0.542163 -0.142577
Spine  30.8058 -3.49627 2.85784
Spine1  9.58334 -5.07246 6.59925
HEad  1.55836 -0.119487 2.90923
LeftShoulder1  7.53398 -12.4311 -40.9731
LeftArm  -15.4855 -10.7367 -30.9374
LeftForeArm  41.8107 -39.7877 -6.69803
LeftHand  -0.25398 0.0180481 5.50724
RightShoulder  4.32138 8.01817 31.5607
RightArm  0.271607 -18.6273 39.2855
RightForeArm  0.0809651 24.4154 5.21036
RightHand  -1.54049 3.89564 -19.4156
LeftUpLeg  11.8965 10.3695 6.08945
LeftLeg  11.6781 4.71435 -1.1737
LeftFoot  -13.0252 0.118573 2.7528
LeftToes  1.06247e-005 4.65855e-005 -8.185e-006
83
root  24.5689 40.1741 2.66136 36.4938 -82.0932 -46.3605
RightUpLeg  -58.7031 -9.8748 7.64316
RightLeg  60.824 -3.94042 -8.13443
RightFoot  -0.671194 -0.0305986 0.321968
RightToes  0.00048216 0.542163 -0.142577
Spine  30.6771 -3.35267 2.60116
Spine1  9.82581 -5.5547 8.25842
HEad  -0.00260183 -0.532778 2.70671
LeftShoulder1  7.50649 -12.83 -39.7257
LeftArm  -13.8938 -11.6591 -31.9974
LeftForeArm  43.6056 -41.1121 -6.97844
LeftHand  -0.25398 0.0180481 5.50724
RightShoulder  4.27276 8.04551 31.0469
RightArm  -0.541011 -20.0747 39.1953
RightForeArm  2.44329 25.4885 5.33877
RightHand  -1.55417 4.1167 -19.1483
LeftUpLeg  12.5331 12.026 6.61204
LeftLeg  13.3291 2.72958 -0.814691
LeftFoot  -13.5201 0.130405 2.65398
LeftToes  1.06247e-005 4.65855e-005 -8.185e-006
84
root  23.0901 40.268 2.66961 37.2874 -81.1829 -46.0035
RightUpLeg  -59.0114 -10.3191 8.78891
RightLeg  63.0925 -3.83741 -8.75542
RightFoot  0.440036 0.368741 -3.6172
RightToes  0.00048216 0.542163 -0.142577
Spine  30.7219 -3.91966 4.13535
Spine1  9.2994 -6.02406 9.22416
HEad  -1.84898 -0.800662 2.49279
LeftShoulder1  7.56726 -13.2777 -38.9014
LeftArm  -12.1431 -10.8061 -32.614
LeftForeArm  46.4016 -43.37 -7.49898
LeftHand  -0.25398 0.0180481 5.50724
RightShoulder  4.26317 8.15235 30.6209
RightArm  -1.7952 -21.3855 39.164
RightForeArm  4.80927 25.5073 5.2142
RightHand  -1.59991 4.36341 -19.2167
LeftUpLeg  12.6812 12.8716 7.9534
LeftLeg  14.7995 0.834685 -0.431055
LeftFoot  -12.6065 0.0886278 1.20235
LeftToes  1.06247e-005 4.65855e-005 -8.185e-006
